<svg width="260" height="89" viewBox="0 0 260 89" fill="none" xmlns="http://www.w3.org/2000/svg">
<path d="M28.288 0.935997H30.464L40.576 36.008L25.856 89H0.256L28.288 0.935997ZM57.088 73.384H35.712L41.088 53.672H51.328L36.224 0.935997H59.648L87.68 89H61.568L57.088 73.384ZM96.195 0.935997H121.795V89H96.195V0.935997ZM156.109 65.192H139.085V48.04H156.109V31.016H173.261V48.04H190.285V65.192H173.261V82.216H156.109V65.192ZM225.234 65.192H208.21V48.04H225.234V31.016H242.386V48.04H259.41V65.192H242.386V82.216H225.234V65.192Z" fill="#D0D0D0" style="fill:#D0D0D0;fill:color(display-p3 0.8157 0.8157 0.8157);fill-opacity:1;"/>
</svg>
